<?xml version="1.0" encoding="utf-8"?>
<!-- Generator: Adobe Illustrator 19.0.0, SVG Export Plug-In . SVG Version: 6.00 Build 0)  -->
<svg version="1.1" id="Layer_1" xmlns="http://www.w3.org/2000/svg" xmlns:xlink="http://www.w3.org/1999/xlink" x="0px" y="0px"
	 viewBox="-233 235 32 32" style="enable-background:new -233 235 32 32;" xml:space="preserve">
<style type="text/css">
	.st0{fill:#333333;}
</style>
<path class="st0" d="M-216.9,258.5c-5.3,0-9.6-1.4-9.6-3.2c0-1,0-2,0-3.2c0-0.3,0.1-0.5,0.3-0.8c1.1,1.4,4.8,2.4,9.3,2.4
	c4.5,0,8.2-1,9.3-2.4c0.2,0.3,0.3,0.5,0.3,0.8c0,0.9,0,1.9,0,3.2C-207.3,257.1-211.6,258.5-216.9,258.5L-216.9,258.5z M-216.9,252.1
	c-5.3,0-9.6-1.4-9.6-3.2c0-1,0-2,0-3.2c0-0.2,0.1-0.3,0.2-0.5l0,0c0-0.1,0.1-0.2,0.2-0.3c1.1,1.4,4.8,2.4,9.3,2.4
	c4.5,0,8.2-1,9.3-2.4c0.1,0.1,0.1,0.2,0.2,0.3l0,0c0.1,0.2,0.2,0.3,0.2,0.5c0,0.9,0,1.9,0,3.2C-207.3,250.7-211.6,252.1-216.9,252.1
	L-216.9,252.1z M-216.9,245.7c-5.3,0-9.6-1.4-9.6-3.2c0-0.5,0-1,0-1.6c0-0.5,0-1,0-1.6c0-1.8,4.3-3.2,9.6-3.2s9.6,1.4,9.6,3.2
	c0,0.5,0,1,0,1.6c0,0.5,0,1,0,1.6C-207.3,244.2-211.6,245.7-216.9,245.7z M-216.9,237.6c-3.6,0-6.4,0.7-6.4,1.6
	c0,0.9,2.9,1.6,6.4,1.6c3.6,0,6.4-0.7,6.4-1.6C-210.5,238.4-213.3,237.6-216.9,237.6z"/>
<g>
	<path class="st0" d="M-225,265.2l1.8-5.7h1.7l1.6,5.7h-1.7l-0.5-2h-1.2l-0.5,2H-225z M-222.3,262.5c0-0.1-0.1-0.2-0.1-0.4
		s-0.1-0.4-0.1-0.5c0-0.2-0.1-0.4-0.2-0.6l-0.4,1.6H-222.3z"/>
	<path class="st0" d="M-219.4,265.2v-5.7h1.9c0.2,0,0.4,0,0.6,0c0.2,0,0.3,0,0.5,0.1c0.1,0,0.3,0.1,0.4,0.1c0.1,0.1,0.2,0.1,0.3,0.2
		c0.2,0.1,0.3,0.3,0.4,0.5c0.1,0.2,0.1,0.4,0.1,0.7c0,0.3-0.1,0.6-0.2,0.8c-0.1,0.3-0.3,0.5-0.5,0.6h0c-0.2,0.1-0.4,0.2-0.6,0.3
		c-0.2,0.1-0.5,0.1-0.9,0.1h-0.3v2.2H-219.4z M-217.7,262.2c0.3,0,0.5-0.1,0.6-0.2c0.1-0.2,0.2-0.4,0.2-0.7c0-0.3-0.1-0.6-0.2-0.7
		c-0.1-0.1-0.3-0.2-0.6-0.2h0L-217.7,262.2L-217.7,262.2z"/>
	<path class="st0" d="M-214.7,259.5h1.6v5.7h-1.6V259.5z"/>
	<path class="st0" d="M-212.4,264.1l0.2,0.1c0.2,0.1,0.3,0.1,0.4,0.2c0.1,0,0.2,0.1,0.4,0.1c0.1,0,0.3,0.1,0.4,0.1
		c0.1,0,0.1,0,0.2,0s0.1,0,0.2-0.1c0.1,0,0.1-0.1,0.1-0.1c0,0,0-0.1,0-0.1c0-0.1,0-0.1,0-0.1c0,0,0-0.1-0.1-0.1c0,0-0.1-0.1-0.2-0.1
		c-0.1-0.1-0.2-0.1-0.3-0.2l-0.5-0.4c-0.2-0.1-0.3-0.2-0.4-0.3s-0.2-0.2-0.3-0.3c-0.1-0.1-0.1-0.2-0.1-0.3c0-0.1,0-0.2,0-0.4
		c0-0.2,0-0.4,0.1-0.6c0.1-0.2,0.2-0.3,0.3-0.4c0.1-0.1,0.3-0.2,0.5-0.3c0.2-0.1,0.4-0.1,0.6-0.1c0.1,0,0.2,0,0.2,0s0.2,0,0.3,0
		c0.1,0,0.2,0,0.3,0.1c0.1,0,0.3,0.1,0.5,0.1l0.3,0.1l0,0.8l-0.2-0.1c-0.2-0.1-0.3-0.1-0.4-0.1c-0.1,0-0.2-0.1-0.4-0.1
		c-0.1,0-0.2,0-0.3,0c-0.1,0-0.2,0-0.3,0.1c-0.1,0.1-0.1,0.1-0.1,0.3c0,0,0,0.1,0,0.1c0,0,0,0.1,0,0.1c0,0,0.1,0.1,0.1,0.1
		c0.1,0,0.1,0.1,0.2,0.2v0l0.5,0.3c0.2,0.1,0.3,0.2,0.4,0.3s0.2,0.2,0.3,0.3c0.1,0.1,0.1,0.2,0.2,0.3c0,0.1,0,0.3,0,0.4
		c0,0.2,0,0.4-0.1,0.6c-0.1,0.2-0.2,0.4-0.3,0.5c-0.1,0.1-0.3,0.2-0.5,0.3c-0.2,0.1-0.4,0.1-0.7,0.1c-0.2,0-0.4,0-0.7-0.1
		c-0.3-0.1-0.6-0.1-0.9-0.2l-0.1,0L-212.4,264.1z"/>
</g>
</svg>
